<?xml version="1.0" encoding="UTF-8"?>
<svg version="1.1" xmlns="http://www.w3.org/2000/svg" width="1980" height="540">
<path d="M0 0 C32.01 0 64.02 0 97 0 C102.61686992 11.23373984 102.61686992 11.23373984 104.5234375 15.859375 C104.97477051 16.94621582 105.42610352 18.03305664 105.89111328 19.15283203 C106.62563721 20.93343018 106.62563721 20.93343018 107.375 22.75 C108.52315528 25.51422644 109.67524136 28.27680519 110.828125 31.0390625 C111.14520416 31.79915619 111.46228333 32.55924988 111.78897095 33.34237671 C116.50596641 44.62932535 121.32383746 55.87367819 126.125 67.125 C131.93811812 80.7495589 137.74702581 94.37560713 143.49609375 108.02734375 C143.92893677 109.05484741 144.36177979 110.08235107 144.80773926 111.14099121 C146.83684763 115.95932758 148.86310703 120.77883573 150.88525391 125.60009766 C154.75826597 134.81645956 158.71662461 143.96486762 163 153 C171.60886948 133.28561278 180.05907185 113.50473702 188.47955322 93.70925903 C196.61887004 74.57517818 204.79243666 55.45608682 212.99804688 36.3503418 C213.80997167 34.45885417 214.62182257 32.56733482 215.43359375 30.67578125 C216.01142105 29.33023415 216.01142105 29.33023415 216.60092163 27.95750427 C218.53129172 23.45503145 220.44605843 18.94667332 222.33642578 14.42724609 C222.70711685 13.54143356 223.07780792 12.65562103 223.45973206 11.7429657 C224.16041997 10.06523773 224.8588864 8.38657971 225.55479431 6.7068634 C227.89093623 1.10906377 227.89093623 1.10906377 229 0 C258.7 0 288.4 0 319 0 C319 96.36 319 192.72 319 292 C297.55 292 276.1 292 254 292 C253.67 223.36 253.34 154.72 253 84 C237.80550939 119.1581962 237.80550939 119.1581962 222.75 154.375 C221.80538249 156.5959192 220.86063567 158.8167834 219.91577148 161.03759766 C217.95687606 165.64204834 215.99851993 170.24672783 214.04052734 174.8515625 C210.83835044 182.38137524 207.63247576 189.90961036 204.42578125 197.4375 C204.1566605 198.06927784 203.88753975 198.70105568 203.61026382 199.3519783 C202.28005533 202.47468145 200.94979485 205.59736246 199.61950684 208.72003174 C197.15361363 214.50854929 194.68814877 220.29724927 192.22265625 226.0859375 C190.82917969 229.35757813 189.43570312 232.62921875 188 236 C171.5 236 155 236 138 236 C133.77734375 226.08593751 133.77734375 226.08593751 132.31108093 222.64337158 C130.07265676 217.38789367 127.83419484 212.13243185 125.59559345 206.87702942 C124.25641522 203.73313318 122.91726353 200.58922565 121.578125 197.4453125 C121.3061347 196.80675827 121.0341444 196.16820404 120.75391197 195.51029968 C117.32061104 187.44978456 113.88823809 179.3888754 110.45713806 171.3274231 C108.50139577 166.73243476 106.54527786 162.13760637 104.58914185 157.54278564 C103.68488504 155.41847419 102.78079927 153.29408993 101.87692261 151.1696167 C92.62670213 129.42826118 83.30734713 107.71714331 74 86 C73.67 153.98 73.34 221.96 73 292 C48.91 292 24.82 292 0 292 C0 195.64 0 99.28 0 0 Z " fill="#FFFFFF" transform="translate(1661,198)"/>
<path d="M0 0 C2.6896261 0.00314973 5.37813646 -0.02036282 8.06762695 -0.0456543 C48.3112321 -0.19261341 85.22833959 12.43078547 114.52270508 40.44067383 C140.2182294 66.83067178 153.02094084 103.8946822 153.22583008 140.42504883 C153.23284439 141.26593048 153.2398587 142.10681213 153.24708557 142.97317505 C153.26448825 145.67072975 153.27093731 148.36806506 153.27270508 151.06567383 C153.27337982 151.98640686 153.27405457 152.90713989 153.27474976 153.85577393 C153.25917476 167.21213118 152.9788022 180.23337168 150.02270508 193.31567383 C149.84578125 194.12004883 149.66885742 194.92442383 149.48657227 195.75317383 C143.47183005 222.34685272 131.72112285 244.43116239 113.02270508 264.31567383 C112.49676758 264.90606445 111.97083008 265.49645508 111.42895508 266.10473633 C101.37179869 276.93157306 88.37290291 284.34876825 75.02270508 290.31567383 C73.83290039 290.8596582 72.6430957 291.40364258 71.41723633 291.96411133 C64.25186909 295.04279692 57.09024792 297.23105583 49.52270508 299.06567383 C48.70519775 299.26443115 47.88769043 299.46318848 47.04541016 299.66796875 C32.49462918 302.99447262 18.2519549 303.68998184 3.39770508 303.62817383 C2.46761627 303.62601868 1.53752747 303.62386353 0.57925415 303.62164307 C-12.7800774 303.57191334 -25.91390379 303.40262804 -38.97729492 300.31567383 C-40.25491699 300.01765869 -40.25491699 300.01765869 -41.55834961 299.71362305 C-79.02556024 290.64239958 -108.59800861 269.1928747 -128.72729492 236.37817383 C-151.37158134 196.07452588 -153.23217027 142.53947436 -141.27075195 98.7277832 C-134.83496285 76.26675489 -124.00760024 57.3157841 -107.97729492 40.31567383 C-107.3765918 39.65051758 -106.77588867 38.98536133 -106.15698242 38.30004883 C-95.71934093 27.1846384 -82.78065717 19.48512242 -68.97729492 13.31567383 C-67.78749023 12.77168945 -66.59768555 12.22770508 -65.37182617 11.66723633 C-58.20645893 8.58855073 -51.04483776 6.40029183 -43.47729492 4.56567383 C-42.25103394 4.26753784 -42.25103394 4.26753784 -41 3.96337891 C-27.34294818 0.84119352 -13.95209901 -0.03398959 0 0 Z M-44.97729492 73.31567383 C-67.64696321 99.82296485 -70.90203608 134.63157009 -68.70385742 168.20629883 C-66.98990639 188.53738039 -61.06754829 207.769849 -48.97729492 224.31567383 C-48.49518555 224.98469727 -48.01307617 225.6537207 -47.51635742 226.34301758 C-38.44723295 237.90221958 -24.07940569 244.4454424 -9.97729492 247.31567383 C-5.6966458 247.7349683 -1.46372247 247.79342774 2.83520508 247.75317383 C3.98013428 247.74487549 5.12506348 247.73657715 6.3046875 247.72802734 C22.68898323 247.40096994 37.80857191 242.16117104 49.90161133 230.66723633 C73.22101082 204.8140531 76.47264503 170.08269237 74.90258789 136.7668457 C73.52025233 115.65321086 67.56607806 95.48160458 55.02270508 78.31567383 C54.5405957 77.64665039 54.05848633 76.97762695 53.56176758 76.28833008 C44.4926431 64.72912808 30.12481584 58.18590526 16.02270508 55.31567383 C11.74205596 54.89637936 7.50913263 54.83791992 3.21020508 54.87817383 C2.06527588 54.88647217 0.92034668 54.89477051 -0.25927734 54.90332031 C-16.95418752 55.23657809 -33.36871798 60.72575327 -44.97729492 73.31567383 Z " fill="#FFFFFF" transform="translate(1143.977294921875,192.684326171875)"/>
<path d="M0 0 C181.7172619 0 181.7172619 0 208.75 25.1875 C226.1570625 43.69827117 227.65912943 66.49655549 227.13623047 90.73828125 C226.55515964 104.65065802 221.48650078 117.98312055 213 129 C212.37609375 129.81210937 211.7521875 130.62421875 211.109375 131.4609375 C201.5418267 142.97743083 188.4616704 149.13644329 175 155 C175.52207031 155.20753906 176.04414062 155.41507813 176.58203125 155.62890625 C213.26014588 170.9810418 228.00376278 214.85602986 243.86889648 248.38598633 C246.33807199 253.58734533 248.86763564 258.75184795 251.46484375 263.890625 C252.34644165 265.63545166 252.34644165 265.63545166 253.24584961 267.41552734 C254.3830423 269.65825809 255.52546707 271.89834655 256.67407227 274.13525391 C257.19412842 275.16054199 257.71418457 276.18583008 258.25 277.2421875 C258.70890625 278.1379248 259.1678125 279.03366211 259.640625 279.95654297 C261.38177994 283.85475371 262.64990121 287.94970362 264 292 C237.27 292 210.54 292 183 292 C162.7076622 251.55151458 162.7076622 251.55151458 156.875 239.25 C147.06106059 217.66197256 147.06106059 217.66197256 134 198 C133.37931641 197.12021484 133.37931641 197.12021484 132.74609375 196.22265625 C126.91917714 188.24363804 118.07938942 185.72381683 109 183 C98.11 182.34 87.22 181.68 76 181 C76 217.63 76 254.26 76 292 C50.92 292 25.84 292 0 292 C0 195.64 0 99.28 0 0 Z M76 55 C76 79.42 76 103.84 76 129 C110.59351569 131.6715938 110.59351569 131.6715938 142.578125 118.4375 C151.46332185 108.77592673 151.55314847 97.58784734 151.13183594 85.12011719 C150.63564231 77.14058855 147.35421248 69.91658053 142 64 C124.49340397 50.31550681 95.30480652 55 76 55 Z " fill="#FFFFFF" transform="translate(1353,198)"/>
<path d="M0 0 C173.7172619 0 173.7172619 0 200.75 25.1875 C218.1570625 43.69827117 219.65912943 66.49655549 219.13623047 90.73828125 C218.55515964 104.65065802 213.48650078 117.98312055 205 129 C204.37609375 129.81210937 203.7521875 130.62421875 203.109375 131.4609375 C193.5418267 142.97743083 180.4616704 149.13644329 167 155 C167.52207031 155.20753906 168.04414063 155.41507813 168.58203125 155.62890625 C205.26014588 170.9810418 220.00376278 214.85602986 235.86889648 248.38598633 C238.33807199 253.58734533 240.86763564 258.75184795 243.46484375 263.890625 C244.34644165 265.63545166 244.34644165 265.63545166 245.24584961 267.41552734 C246.3830423 269.65825809 247.52546707 271.89834655 248.67407227 274.13525391 C249.19412842 275.16054199 249.71418457 276.18583008 250.25 277.2421875 C250.70890625 278.1379248 251.1678125 279.03366211 251.640625 279.95654297 C253.38177994 283.85475371 254.64990121 287.94970362 256 292 C229.27 292 202.54 292 175 292 C154.7076622 251.55151458 154.7076622 251.55151458 148.875 239.25 C139.06106059 217.66197256 139.06106059 217.66197256 126 198 C125.37931641 197.12021484 125.37931641 197.12021484 124.74609375 196.22265625 C118.91917714 188.24363804 110.07938942 185.72381683 101 183 C90.11 182.34 79.22 181.68 68 181 C68 217.63 68 254.26 68 292 C45.56 292 23.12 292 0 292 C0 195.64 0 99.28 0 0 Z M68 55 C68 79.42 68 103.84 68 129 C102.59351569 131.6715938 102.59351569 131.6715938 134.578125 118.4375 C143.46332185 108.77592673 143.55314847 97.58784734 143.13183594 85.12011719 C142.63564231 77.14058855 139.35421248 69.91658053 134 64 C116.49340397 50.31550681 87.30480652 55 68 55 Z " fill="#FFFFFF" transform="translate(0,198)"/>
<path d="M0 0 C67.32 0 134.64 0 204 0 C204 18.81 204 37.62 204 57 C161.76 57 119.52 57 76 57 C76 74.82 76 92.64 76 111 C115.93 111 155.86 111 197 111 C197 129.81 197 148.62 197 168 C157.07 168 117.14 168 76 168 C76 190.11 76 212.22 76 235 C119.56 235 163.12 235 208 235 C208 253.81 208 272.62 208 292 C139.36 292 70.72 292 0 292 C0 195.64 0 99.28 0 0 Z " fill="#FFFFFF" transform="translate(300,198)"/>
<path d="M0 0 C67.32 0 134.64 0 204 0 C204 18.81 204 37.62 204 57 C161.76 57 119.52 57 76 57 C76 74.82 76 92.64 76 111 C115.93 111 155.86 111 197 111 C197 129.81 197 148.62 197 168 C157.07 168 117.14 168 76 168 C76 208.92 76 249.84 76 292 C50.92 292 25.84 292 0 292 C0 195.64 0 99.28 0 0 Z " fill="#FFFFFF" transform="translate(739,198)"/>
<path d="M0 0 C40.92 0 81.84 0 124 0 C124 18.81 124 37.62 124 57 C83.08 57 42.16 57 0 57 C0 38.19 0 19.38 0 0 Z " fill="#FFFFFF" transform="translate(558,346)"/>
</svg>
