<?xml version="1.0" encoding="UTF-8"?>
<svg version="1.1" xmlns="http://www.w3.org/2000/svg" width="198" height="54">
<path d="M0 0 C3.63 0 7.26 0 11 0 C12.98 3.96 14.96 7.92 17 12 C18.98 8.04 20.96 4.08 23 0 C26.3 0 29.6 0 33 0 C33 9.57 33 19.14 33 29 C30.69 29 28.38 29 26 29 C25.67 23.72 25.34 18.44 25 13 C23.35 16.3 21.7 19.6 20 23 C18.02 23 16.04 23 14 23 C12.35 19.7 10.7 16.4 9 13 C8.67 18.28 8.34 23.56 8 29 C5.36 29 2.72 29 0 29 C0 19.43 0 9.86 0 0 Z " fill="#000000" transform="translate(165,21)"/>
<path d="M0 0 C3.6689014 1.90478108 6.15262072 4.30524143 8 8 C9.19805086 19.69236974 9.19805086 19.69236974 6.73046875 24.4453125 C3.78147517 27.87504226 1.5937519 29.83669728 -3.01171875 30.30859375 C-14.15542 30.69939305 -14.15542 30.69939305 -18.3125 27.125 C-22.81602039 22.42863365 -22.44525038 17.82878941 -22.42578125 11.5078125 C-21.89426108 7.12886651 -20.63079463 5.13146248 -17.5078125 2.13671875 C-12.60937489 -1.55614484 -5.80868589 -0.70506321 0 0 Z M-11.640625 7.2421875 C-14.08691857 10.40549815 -14.13685168 14.099727 -14 18 C-12.85848113 20.49058663 -11.9103944 22.0896056 -10 24 C-5.9143366 24.45325034 -5.9143366 24.45325034 -2.359375 22.7578125 C0.08691857 19.59450185 0.13685168 15.900273 0 12 C-1.14151887 9.50941337 -2.0896056 7.9103944 -4 6 C-8.0856634 5.54674966 -8.0856634 5.54674966 -11.640625 7.2421875 Z " fill="#000000" transform="translate(121,20)"/>
<path d="M0 0 C4.5478125 -0.1546875 4.5478125 -0.1546875 9.1875 -0.3125 C10.13391357 -0.35802002 11.08032715 -0.40354004 12.05541992 -0.45043945 C16.50748813 -0.52368758 18.42020897 -0.4387012 22.08203125 2.33203125 C24 5 24 5 24.5 8 C24 11 24 11 22.29296875 13.33203125 C21.86628906 14.21246094 21.43960938 15.09289063 21 16 C21.94512194 18.92968183 21.94512194 18.92968183 23.8125 21.6875 C27 26.88741722 27 26.88741722 27 29 C24.03 29 21.06 29 18 29 C17.67386719 28.36191406 17.34773438 27.72382812 17.01171875 27.06640625 C16.57472656 26.24011719 16.13773438 25.41382812 15.6875 24.5625 C15.04361328 23.32693359 15.04361328 23.32693359 14.38671875 22.06640625 C13.09979113 19.69352356 13.09979113 19.69352356 10 19 C9.67 22.3 9.34 25.6 9 29 C6.03 29 3.06 29 0 29 C0 19.43 0 9.86 0 0 Z M9 5 C9 7.64 9 10.28 9 13 C10.98 12.34 12.96 11.68 15 11 C14.67 9.35 14.34 7.7 14 6 C12.35 5.67 10.7 5.34 9 5 Z " fill="#000000" transform="translate(134,21)"/>
<path d="M0 0 C2.701875 -0.103125 5.40375 -0.20625 8.1875 -0.3125 C9.02949951 -0.35802002 9.87149902 -0.40354004 10.73901367 -0.45043945 C14.96016491 -0.52820939 16.55312748 -0.34512664 20.01953125 2.33203125 C22 5 22 5 22.5 8 C22 11 22 11 20.29296875 13.33203125 C19.86628906 14.21246094 19.43960937 15.09289063 19 16 C19.94512194 18.92968183 19.94512194 18.92968183 21.8125 21.6875 C25 26.88741722 25 26.88741722 25 29 C22.03 29 19.06 29 16 29 C15.67386719 28.36191406 15.34773437 27.72382812 15.01171875 27.06640625 C14.57472656 26.24011719 14.13773438 25.41382812 13.6875 24.5625 C13.04361328 23.32693359 13.04361328 23.32693359 12.38671875 22.06640625 C11.09979113 19.69352356 11.09979113 19.69352356 8 19 C7.67 22.3 7.34 25.6 7 29 C4.69 29 2.38 29 0 29 C0 19.43 0 9.86 0 0 Z M7 5 C7 7.64 7 10.28 7 13 C8.98 12.34 10.96 11.68 13 11 C12.67 9.35 12.34 7.7 12 6 C10.35 5.67 8.7 5.34 7 5 Z " fill="#000000" transform="translate(0,21)"/>
<path d="M0 0 C6.93 0 13.86 0 21 0 C21 1.65 21 3.3 21 5 C17.04 5 13.08 5 9 5 C9 7.31 9 9.62 9 12 C12.96 12 16.92 12 21 12 C21 13.65 21 15.3 21 17 C17.04 17 13.08 17 9 17 C9 19.31 9 21.62 9 24 C13.29 24 17.58 24 22 24 C22 25.65 22 27.3 22 29 C14.74 29 7.48 29 0 29 C0 19.43 0 9.86 0 0 Z " fill="#000000" transform="translate(29,21)"/>
<path d="M0 0 C6.93 0 13.86 0 21 0 C21 1.65 21 3.3 21 5 C17.04 5 13.08 5 9 5 C9 7.31 9 9.62 9 12 C12.96 12 16.92 12 21 12 C21 13.65 21 15.3 21 17 C17.04 17 13.08 17 9 17 C9 20.96 9 24.92 9 29 C6.03 29 3.06 29 0 29 C0 19.43 0 9.86 0 0 Z " fill="#000000" transform="translate(73,21)"/>
<path d="M0 0 C4.29 0 8.58 0 13 0 C13 1.98 13 3.96 13 6 C8.71 6 4.42 6 0 6 C0 4.02 0 2.04 0 0 Z " fill="#000000" transform="translate(55,36)"/>
</svg>
